<svg width="24" height="24" viewBox="0 0 24 24" fill="none" xmlns="http://www.w3.org/2000/svg">
    <path d="M13.992 21.981a.5.5 0 01-.488-.609L16.62 7.421a.5.5 0 01.747-.32l3.892 2.352a.502.502 0 01.17.686l-7.008 11.6a.498.498 0 01-.428.242z" fill="#60FDCE"/>
    <path d="M14.006 20.844a.497.497 0 01-.5-.498L13.454 3.22a.5.5 0 01.62-.487l4.045 1.002a.5.5 0 01.365.605L14.49 20.464a.5.5 0 01-.485.38z" fill="#00D1FF"/>
    <path d="M14.5 1a.5.5 0 00-.5-.5H5a.5.5 0 00-.5.5v15.5h10V1z" fill="#0057FF"/>
    <path d="M5 23.5h9a.5.5 0 00.5-.5v-6.5h-10V23a.5.5 0 00.5.5z" fill="#C1D6FF"/>
    <path d="M9.5 21.5a1.5 1.5 0 100-3 1.5 1.5 0 000 3z" fill="#0057FF"/>
</svg>
