<svg width="24" height="24" viewBox="0 0 24 24" fill="none" xmlns="http://www.w3.org/2000/svg">
<path d="M20.5 23.5H3.5C2.9475 23.5 2.5 23.0525 2.5 22.5V1.5C2.5 0.9475 2.9475 0.5 3.5 0.5H15.5L21.5 6.5V22.5C21.5 23.0525 21.0525 23.5 20.5 23.5Z" fill="#242E42"/>
<path d="M15.5 0.5V5.5C15.5 6.0525 15.9475 6.5 16.5 6.5H21.5L15.5 0.5Z" fill="#364563"/>
<path d="M17 12H16.45C16.1 12 15.8 11.8 15.65 11.5C15.5 11.2 15.6 10.8 15.85 10.6L16.2 10.25C16.4 10.05 16.4 9.75 16.2 9.55L15.5 8.85C15.3 8.65 15 8.65 14.8 8.85L14.45 9.2C14.2 9.45 13.85 9.5 13.55 9.4C13.25 9.25 13.05 8.95 13.05 8.6V8C13.05 7.7 12.85 7.5 12.55 7.5H11.55C11.25 7.5 11.05 7.7 11.05 8V8.55C11.05 8.9 10.85 9.2 10.55 9.35C10.15 9.45 9.8 9.35 9.55 9.15L9.15 8.75C8.95 8.55 8.65 8.55 8.45 8.75L7.75 9.45C7.55 9.65 7.55 9.95 7.75 10.15L8.1 10.5C8.35 10.75 8.4 11.1 8.3 11.4C8.15 11.7 7.85 11.9 7.5 11.9H7C6.7 11.9 6.5 12.1 6.5 12.4V13.4C6.5 13.7 6.7 13.9 7 13.9H7.55C7.9 13.9 8.2 14.1 8.35 14.4C8.5 14.7 8.4 15.1 8.15 15.3L7.8 15.65C7.6 15.85 7.6 16.15 7.8 16.35L8.5 17.05C8.7 17.25 9 17.25 9.2 17.05L9.55 16.7C9.8 16.45 10.15 16.4 10.45 16.5C10.75 16.65 10.95 16.95 10.95 17.3V18C10.95 18.3 11.15 18.5 11.45 18.5H12.45C12.75 18.5 12.95 18.3 12.95 18V17.45C12.95 17.1 13.15 16.8 13.45 16.65C13.75 16.5 14.15 16.6 14.35 16.85L14.7 17.2C14.9 17.4 15.2 17.4 15.4 17.2L16.1 16.5C16.3 16.3 16.3 16 16.1 15.8L15.75 15.45C15.5 15.2 15.45 14.85 15.55 14.55C15.7 14.25 16 14.05 16.35 14.05H17C17.3 14.05 17.5 13.85 17.5 13.55V12.55C17.5 12.2 17.3 12 17 12ZM12 14.5C11.15 14.5 10.5 13.85 10.5 13C10.5 12.15 11.15 11.5 12 11.5C12.85 11.5 13.5 12.15 13.5 13C13.5 13.85 12.85 14.5 12 14.5Z" fill="#00D1FF"/>
</svg>
