<svg width="360"
     height="360"
     fill="none"
     xmlns="http://www.w3.org/2000/svg">
  <style>
      .Bg {
        fill: #fff;
      }

      .Mark {
        fill: #000;
      }

      @media (prefers-color-scheme: dark) {
        .Bg {
          fill: #000;
        }

        .Mark {
          fill: #fff;
        }
      }
  </style>
  <path class="Bg" d="M0 0h360v360H0z"/>
  <path d="M140.625 101.25h-33.75a5.624 5.624 0 00-5.625 5.625v146.25a5.624 5.624 0 005.625 5.625h33.75a5.624 5.624 0 005.625-5.625v-146.25a5.624 5.624 0 00-5.625-5.625z" fill="#0057FF" />
  <path class="Mark" d="M253.125 154.688h-33.75a5.624 5.624 0 00-5.625 5.624v92.813a5.624 5.624 0 005.625 5.625h33.75a5.624 5.624 0 005.625-5.625v-92.813a5.624 5.624 0 00-5.625-5.624zM253.125 101.25h-90a5.624 5.624 0 00-5.625 5.625v30.937a5.625 5.625 0 005.625 5.626h90a5.625 5.625 0 005.625-5.626v-30.937a5.624 5.624 0 00-5.625-5.625z" />
</svg>
