<svg width="16" height="16" viewBox="0 0 16 16" fill="none" xmlns="http://www.w3.org/2000/svg">
<path fill-rule="evenodd" clip-rule="evenodd" d="M7.11111 0.888889H8.88889C10.5901 0.888889 11.7766 0.890777 12.6719 1.01114C13.5415 1.12806 14.002 1.34192 14.3301 1.66994C14.6581 1.99795 14.8719 2.45848 14.9889 3.32814C15.1092 4.22337 15.1111 5.40988 15.1111 7.11111V8.88889C15.1111 10.5901 15.1092 11.7766 14.9889 12.6719C14.8719 13.5415 14.6581 14.002 14.3301 14.3301C14.002 14.6581 13.5415 14.8719 12.6719 14.9889C11.7766 15.1092 10.5901 15.1111 8.88889 15.1111H7.11111C5.40988 15.1111 4.22337 15.1092 3.32814 14.9889C2.45848 14.8719 1.99795 14.6581 1.66994 14.3301C1.34192 14.002 1.12806 13.5415 1.01114 12.6719C0.890777 11.7766 0.888889 10.5901 0.888889 8.88889V7.11111C0.888889 5.40988 0.890777 4.22337 1.01114 3.32814C1.12806 2.45848 1.34192 1.99795 1.66994 1.66994C1.99795 1.34192 2.45848 1.12806 3.32814 1.01114C4.22337 0.890777 5.40988 0.888889 7.11111 0.888889ZM0 7.11111C0 3.7589 0 2.0828 1.0414 1.0414C2.0828 0 3.7589 0 7.11111 0H8.88889C12.2411 0 13.9172 0 14.9586 1.0414C16 2.0828 16 3.7589 16 7.11111V8.88889C16 12.2411 16 13.9172 14.9586 14.9586C13.9172 16 12.2411 16 8.88889 16H7.11111C3.7589 16 2.0828 16 1.0414 14.9586C0 13.9172 0 12.2411 0 8.88889V7.11111ZM3.77501 3.45001H5.72501C5.9045 3.45001 6.05001 3.59552 6.05001 3.77501V12.225C6.05001 12.4045 5.9045 12.55 5.72501 12.55H3.77501C3.59552 12.55 3.45001 12.4045 3.45001 12.225V3.77501C3.45001 3.59552 3.59552 3.45001 3.77501 3.45001ZM12.225 6.53751H10.275C10.0955 6.53751 9.95001 6.68302 9.95001 6.86251V12.225C9.95001 12.4045 10.0955 12.55 10.275 12.55H12.225C12.4045 12.55 12.55 12.4045 12.55 12.225V6.86251C12.55 6.68302 12.4045 6.53751 12.225 6.53751ZM7.02501 3.45001H12.225C12.4045 3.45001 12.55 3.59552 12.55 3.77501V5.56251C12.55 5.742 12.4045 5.88751 12.225 5.88751H7.02501C6.84552 5.88751 6.70001 5.742 6.70001 5.56251V3.77501C6.70001 3.59552 6.84552 3.45001 7.02501 3.45001Z" fill="black"/>
</svg>
