<svg width="12" height="12" viewBox="0 0 12 12" fill="none" xmlns="http://www.w3.org/2000/svg">
<g clip-path="url(#clip0)">
<path d="M4.00004 11C3.73485 10.9999 3.48053 10.8945 3.29304 10.707L0.293041 7.707C0.110883 7.5184 0.0100885 7.26579 0.0123669 7.0036C0.0146453 6.7414 0.119814 6.49059 0.305222 6.30518C0.49063 6.11977 0.741443 6.0146 1.00364 6.01232C1.26584 6.01005 1.51844 6.11084 1.70704 6.293L3.90704 8.493L10.21 0.385998C10.3729 0.176477 10.6123 0.040227 10.8756 0.00722059C11.1389 -0.0257858 11.4045 0.0471556 11.614 0.209999C11.8236 0.372841 11.9598 0.612247 11.9928 0.875548C12.0258 1.13885 11.9529 1.40448 11.79 1.614L4.79004 10.614C4.70308 10.7264 4.59318 10.8189 4.46765 10.8855C4.34212 10.952 4.20384 10.9911 4.06204 11H4.00004Z" fill="black"/>
</g>
<defs>
<clipPath id="clip0">
<path d="M0 0H12V12H0V0Z" fill="white"/>
</clipPath>
</defs>
</svg>
