<svg width="16" height="16" viewBox="0 0 16 16" fill="none" xmlns="http://www.w3.org/2000/svg">
<path d="M12.9 4.5L14.4 3L13 1.6L11.5 3.1C10.8 2.6 9.9 2.2 9 2.1V0H7V2.1C6.1 2.3 5.2 2.6 4.5 3.1L3.1 1.6L1.6 3.1L3.1 4.6C2.6 5.2 2.2 6.1 2.1 7H0V9H2.1C2.3 9.9 2.6 10.8 3.1 11.5L1.6 13L3 14.4L4.5 12.9C5.2 13.4 6.1 13.8 7 13.9V16H9V13.9C9.9 13.7 10.8 13.4 11.5 12.9L13 14.4L14.4 13L12.9 11.5C13.4 10.8 13.8 9.9 13.9 9H16V7H13.9C13.8 6.1 13.4 5.2 12.9 4.5ZM8 11C6.3 11 5 9.7 5 8C5 6.3 6.3 5 8 5C9.7 5 11 6.3 11 8C11 9.7 9.7 11 8 11Z" fill="#000"/>
</svg>
